<svg xmlns="http://www.w3.org/2000/svg" viewBox="0 0 250 350" font-family="Cinzel,Georgia,serif" text-anchor="middle"><defs><radialGradient id="p" cx="50%" cy="38%" r="78%"><stop offset="0%" stop-color="#fdf7ea"/><stop offset="100%" stop-color="#f0e0c4"/></radialGradient><linearGradient id="g" x1="0" y1="0" x2="1" y2="1"><stop offset="0%" stop-color="#f4e3b2"/><stop offset="55%" stop-color="#c9a227"/><stop offset="100%" stop-color="#8a6d1f"/></linearGradient><g id="s"><circle cx="50" cy="30" r="19"/><circle cx="31" cy="56" r="19"/><circle cx="69" cy="56" r="19"/><path d="M43 96L57 96L50 52Z"/></g><g id="i"><text x="26" y="42" font-size="30" font-weight="700">J</text><use href="#s" transform="translate(26 68)scale(.22)translate(-50 -50)"/></g><g id="r"><path d="M15,0L12,4L8,7L7,12L3,14L-2,11L-6,10L-11,10L-12,5L-11,0L-12,-5L-11,-10L-6,-10L-2,-11L3,-14L7,-12L8,-7L12,-4Z" fill="#c96a86" stroke="#8c4a5d"/><path d="M12,0L8,3L8,7L6,10L2,9L-2,11L-6,10L-7,6L-10,4L-12,0L-8,-3L-8,-7L-6,-10L-2,-9L2,-11L6,-10L7,-6L10,-4Z" fill="#e9a2b6" stroke="#a3717f"/><path d="M9,0L7,2L6,5L5,8L1,8L-1,7L-5,8L-7,6L-7,2L-8,0L-9,-3L-6,-5L-3,-6L-2,-9L2,-9L4,-6L6,-5L9,-3Z" fill="#f8d3dc" stroke="#ad939a"/><path d="M-3 0A3 3 0 1 1 3 0A1 1 0 1 0 -1 0" fill="none" stroke="#998288" stroke-width="1" stroke-linecap="round"/></g><path id="t" d="M0 -1L.2 -.2L1 0L.2 .2L0 1L-.2 .2L-1 0L-.2 -.2Z"/></defs><rect width="250" height="350" rx="14" fill="url(#p)"/><rect x="7" y="7" width="236" height="336" rx="10" fill="none" stroke="url(#g)" stroke-width="2.4"/><rect x="13" y="13" width="224" height="324" rx="7" fill="none" stroke="#c9a227" opacity=".8"/><path d="M22 48Q22 22 48 22M228 48Q228 22 202 22M22 302Q22 328 48 328M228 302Q228 328 202 328" fill="none" stroke="#c9a227" stroke-width="1.4"/><g fill="#274e35"><use href="#i"/><use href="#i" transform="rotate(180 125 175)"/></g><rect x="58" y="92" width="134" height="166" rx="10" fill="#fbf3e2" stroke="url(#g)" stroke-width="2.2"/><rect x="64" y="98" width="122" height="154" rx="7" fill="none" stroke="#c9a227" opacity=".85"/><use href="#r" transform="translate(58 92)scale(.6)"/><use href="#r" transform="translate(192 92)scale(.6)"/><use href="#r" transform="translate(58 258)scale(.6)"/><use href="#r" transform="translate(192 258)scale(.6)"/><path d="M101 128Q113 114 125 126Q137 138 149 124" fill="none" stroke="#c9a227" stroke-width="2.4" stroke-linecap="round"/><text x="125" y="212" font-size="92" font-weight="700" fill="#274e35" stroke="#c9a227" stroke-width=".8">J</text><g fill="#274e35"><use href="#s" transform="translate(125 240)scale(.26)translate(-50 -50)"/></g></svg>