<svg xmlns="http://www.w3.org/2000/svg" viewBox="0 0 250 350"><defs><radialGradient id="b" cx="50%" cy="42%" r="80%"><stop offset="0%" stop-color="#12294a"/><stop offset="100%" stop-color="#060a18"/></radialGradient><pattern id="l" width="22" height="22" patternUnits="userSpaceOnUse" patternTransform="rotate(45)"><path d="M0 0H22M0 0V22" stroke="#a8c0e8" stroke-width=".6" opacity=".14"/></pattern><g id="r"><path d="M62,0L54,14L40,23L33,33L29,50L16,60L0,53L-12,43L-24,42L-42,42L-53,30L-49,13L-45,0L-49,-13L-53,-30L-42,-42L-24,-42L-12,-43L-0,-53L16,-60L29,-50L33,-33L40,-23L54,-14Z" fill="#b8a686" stroke="#80745d"/><path d="M51,0L40,11L34,20L35,35L26,44L11,40L0,39L-13,48L-26,44L-29,29L-34,20L-48,13L-51,0L-40,-11L-34,-20L-35,-35L-26,-44L-11,-40L-0,-39L13,-48L26,-44L29,-29L34,-20L48,-13Z" fill="#d0bf9c" stroke="#91856d"/><path d="M39,0L31,8L28,16L28,28L22,37L10,36L0,32L-9,33L-21,36L-30,30L-31,18L-30,8L-35,0L-41,-11L-36,-21L-24,-24L-16,-27L-10,-36L-0,-43L11,-39L17,-29L23,-23L33,-19L42,-11Z" fill="#e0d2b2" stroke="#9c937c"/><path d="M28,0L24,6L27,15L24,24L14,24L6,24L0,31L-9,33L-14,24L-18,18L-27,15L-33,9L-28,0L-24,-6L-27,-15L-24,-24L-14,-24L-6,-24L-0,-31L9,-33L14,-24L18,-18L27,-15L33,-9Z" fill="#eae0c6" stroke="#a39c8a"/><path d="M19,0L18,5L20,11L18,18L11,19L5,17L0,19L-6,23L-12,21L-15,15L-15,9L-19,5L-24,0L-23,-6L-17,-10L-13,-13L-10,-18L-6,-24L-0,-23L5,-18L9,-16L15,-15L21,-12L22,-6Z" fill="#f3ebda" stroke="#aaa498"/><path d="M11,0L13,3L13,8L9,9L6,10L3,13L0,15L-3,13L-6,10L-9,9L-13,8L-13,3L-11,0L-13,-3L-13,-8L-9,-9L-6,-10L-3,-13L-0,-15L3,-13L6,-10L9,-9L13,-8L13,-3Z" fill="#faf5ea" stroke="#afaba3"/><path d="M-11 0A11 11 0 1 1 11 0A6 6 0 1 0 -2 0" fill="none" stroke="#9b9791" stroke-width="1" stroke-linecap="round"/></g><path id="t" d="M0 -1L.2 -.2L1 0L.2 .2L0 1L-.2 .2L-1 0L-.2 -.2Z"/></defs><rect width="250" height="350" rx="14" fill="url(#b)"/><rect width="250" height="350" rx="14" fill="url(#l)"/><rect x="7" y="7" width="236" height="336" rx="10" fill="none" stroke="#a8c0e8" stroke-width="2.4"/><rect x="13" y="13" width="224" height="324" rx="7" fill="none" stroke="#a8c0e8" opacity=".7"/><circle cx="125" cy="175" r="98" fill="none" stroke="#a8c0e8" stroke-width="1.6"/><circle cx="125" cy="175" r="84" fill="none" stroke="#a8c0e8" opacity=".8"/><g fill="#a8c0e8"><use href="#t" transform="translate(216 175)scale(5.5)"/><use href="#t" transform="translate(204 220)scale(5.5)"/><use href="#t" transform="translate(170 254)scale(5.5)"/><use href="#t" transform="translate(125 266)scale(5.5)"/><use href="#t" transform="translate(80 254)scale(5.5)"/><use href="#t" transform="translate(46 220)scale(5.5)"/><use href="#t" transform="translate(34 175)scale(5.5)"/><use href="#t" transform="translate(46 130)scale(5.5)"/><use href="#t" transform="translate(79 96)scale(5.5)"/><use href="#t" transform="translate(125 84)scale(5.5)"/><use href="#t" transform="translate(170 96)scale(5.5)"/><use href="#t" transform="translate(204 129)scale(5.5)"/><use href="#t" transform="translate(34 34)scale(8)"/><use href="#t" transform="translate(216 34)scale(8)"/><use href="#t" transform="translate(34 316)scale(8)"/><use href="#t" transform="translate(216 316)scale(8)"/></g><path d="M158 88A46 46 0 1 0 158 262A60 60 0 1 1 158 88Z" fill="#a8c0e8" opacity=".35" transform="translate(-14 0)"/><use href="#r" transform="translate(125 175)"/></svg>